<svg width="48" height="48" viewBox="0 0 48 48" fill="none" xmlns="http://www.w3.org/2000/svg">
<path d="M36.7822 18H35V14.6309C35 8.96045 30.4766 5 24 5C17.5234 5 13 8.96045 13 14.6309V18H11.2178C10.6299 18.0006 10.0662 18.2344 9.65044 18.6501C9.23468 19.0658 9.00076 19.6294 9 20.2173V40.7822C9.00074 41.3702 9.23464 41.9339 9.65039 42.3496C10.0661 42.7654 10.6298 42.9993 11.2178 43H36.7822C37.3702 42.9993 37.9339 42.7654 38.3496 42.3496C38.7654 41.9339 38.9993 41.3702 39 40.7822V20.2173C38.9992 19.6294 38.7653 19.0658 38.3496 18.6501C37.9338 18.2344 37.3701 18.0006 36.7822 18V18ZM15 14.6309C15 9.35938 19.5205 7 24 7C28.4795 7 33 9.35938 33 14.6309V18H15V14.6309ZM37 40.7822C36.9999 40.84 36.977 40.8953 36.9361 40.9361C36.8953 40.977 36.84 40.9999 36.7822 41H11.2178C11.16 40.9999 11.1047 40.977 11.0639 40.9361C11.023 40.8953 11.0001 40.84 11 40.7822V20.2173C11.0002 20.1596 11.0232 20.1044 11.064 20.0636C11.1048 20.0229 11.1601 20 11.2178 20H36.7822C36.8399 20 36.8952 20.0229 36.936 20.0636C36.9768 20.1044 36.9998 20.1596 37 20.2173V40.7822Z" fill="#3F3F3F"/>
<path d="M23.9688 26.0003C23.1817 26.0013 22.4271 26.3144 21.8706 26.8709C21.3141 27.4275 21.001 28.182 21 28.9691V33.0316C21.001 33.8186 21.3141 34.5732 21.8706 35.1297C22.4271 35.6863 23.1817 35.9994 23.9688 36.0003H24.0312C24.8183 35.9994 25.5729 35.6863 26.1294 35.1297C26.6859 34.5732 26.999 33.8186 27 33.0316V28.9691C26.9977 28.5746 26.9173 28.1845 26.7634 27.8212C26.6094 27.458 26.3851 27.1289 26.1032 26.8528C25.8214 26.5768 25.4877 26.3593 25.1213 26.213C24.7549 26.0667 24.3632 25.9944 23.9688 26.0003ZM25 33.0316C24.9997 33.2884 24.8976 33.5347 24.7159 33.7163C24.5343 33.8979 24.2881 34 24.0312 34.0003H23.9688C23.7119 34 23.4657 33.8979 23.2841 33.7163C23.1024 33.5347 23.0003 33.2884 23 33.0316V28.9691C23.0021 28.8371 23.0306 28.7069 23.084 28.5862C23.1373 28.4655 23.2143 28.3567 23.3105 28.2664C23.4067 28.176 23.5201 28.1059 23.6439 28.0602C23.7677 28.0145 23.8994 27.9942 24.0312 28.0003C24.2881 28.0006 24.5343 28.1028 24.7159 28.2844C24.8976 28.466 24.9997 28.7122 25 28.9691V33.0316Z" fill="#3F3F3F"/>
</svg>
