<svg width="48" height="48" viewBox="0 0 48 48" fill="none" xmlns="http://www.w3.org/2000/svg">
<path d="M30.6728 22.752C30.8507 23.6835 30.8292 24.642 30.6096 25.5645C30.39 26.487 29.9773 27.3525 29.3988 28.1039C28.8203 28.8552 28.0891 29.4755 27.2534 29.9236C26.4177 30.3718 25.4965 30.6377 24.5506 30.7039C23.6046 30.77 22.6554 30.6349 21.7654 30.3074C20.8755 29.9799 20.0651 29.4675 19.3877 28.804C18.7102 28.1405 18.1811 27.3409 17.8352 26.4579C17.4894 25.575 17.3346 24.6287 17.3811 23.6816C17.3858 23.5745 17.3929 23.4684 17.4024 23.3634C17.4177 23.2313 17.4644 23.1048 17.5386 22.9945C17.6128 22.8842 17.7123 22.7933 17.8289 22.7293C17.9454 22.6654 18.0756 22.6303 18.2085 22.627C18.3414 22.6237 18.4732 22.6522 18.5928 22.7103C18.995 22.905 19.4361 23.0061 19.8829 23.0061C20.406 23.0075 20.9206 22.873 21.3761 22.6158C21.8316 22.3586 22.2126 21.9876 22.4817 21.539C22.7508 21.0904 22.8988 20.5796 22.9113 20.0566C22.9238 19.5336 22.8002 19.0164 22.5528 18.5555C22.4925 18.4372 22.4613 18.3063 22.4618 18.1736C22.4623 18.0409 22.4945 17.9102 22.5557 17.7924C22.6169 17.6747 22.7053 17.5732 22.8137 17.4965C22.922 17.4199 23.0471 17.3702 23.1785 17.3516C23.5527 17.304 23.9302 17.2862 24.3072 17.2982C25.8277 17.3566 27.2838 17.9271 28.4394 18.9171C29.5949 19.9071 30.3819 21.2585 30.6728 22.752V22.752Z" fill="#0F804F"/>
<path d="M23.9999 37.584C19.9932 37.6169 16.0615 36.496 12.6745 34.3552C9.28739 32.2143 6.58795 29.144 4.89838 25.5107C4.7345 25.1235 4.63901 24.7108 4.61615 24.291C4.61015 23.8826 4.69278 23.4778 4.85834 23.1045C6.51899 19.4993 9.17604 16.4443 12.5161 14.2998C15.8561 12.1553 19.7397 11.0107 23.7089 11.001L24.3486 11C28.3163 11.0093 32.1986 12.1533 35.5374 14.2969C38.8762 16.4405 41.5323 19.4944 43.1923 23.0981C43.3444 23.4462 43.4257 23.8209 43.4316 24.2007C43.4469 24.6507 43.3502 25.0975 43.1503 25.501C41.4711 29.1107 38.7949 32.1651 35.4372 34.3042C32.0796 36.4432 28.1803 37.5778 24.1992 37.5742L23.9999 37.584ZM7.62982 24.2544C7.63471 24.2744 7.63959 24.2944 7.64545 24.3135C9.09435 27.3881 11.3886 29.9868 14.2601 31.8055C17.1315 33.6243 20.4613 34.588 23.8603 34.584L24.0488 34.5742C27.4826 34.6029 30.8524 33.6438 33.7565 31.8112C36.6606 29.9786 38.9766 27.3497 40.4286 24.2378C38.9981 21.1798 36.7258 18.5927 33.878 16.7796C31.0301 14.9664 27.7246 14.0023 24.3486 14L23.7089 14.001C20.3311 14.0038 17.0242 14.97 14.1762 16.7861C11.3281 18.6022 9.05721 21.193 7.62982 24.2544V24.2544Z" fill="#0F804F"/>
</svg>
