<svg width="48" height="48" viewBox="0 0 48 48" fill="none" xmlns="http://www.w3.org/2000/svg">
<path d="M24 46C19.6488 46 15.3953 44.7097 11.7775 42.2923C8.15958 39.8749 5.33979 36.439 3.67466 32.419C2.00953 28.3991 1.57386 23.9756 2.42273 19.708C3.27161 15.4404 5.36691 11.5204 8.44366 8.44365C11.5204 5.36689 15.4404 3.27159 19.708 2.42272C23.9756 1.57384 28.3991 2.00952 32.419 3.67464C36.439 5.33977 39.875 8.15957 42.2923 11.7774C44.7097 15.3953 46 19.6488 46 24C45.9934 29.8327 43.6735 35.4247 39.5491 39.5491C35.4247 43.6734 29.8328 45.9934 24 46V46ZM24 4.99999C20.2422 4.99999 16.5687 6.11432 13.4442 8.20207C10.3196 10.2898 7.88436 13.2572 6.4463 16.729C5.00823 20.2008 4.63197 24.0211 5.36509 27.7067C6.09821 31.3923 7.90778 34.7778 10.565 37.435C13.2222 40.0922 16.6077 41.9018 20.2933 42.6349C23.9789 43.368 27.7992 42.9918 31.271 41.5537C34.7428 40.1156 37.7102 37.6804 39.7979 34.5558C41.8857 31.4313 43 27.7578 43 24C42.9943 18.9626 40.9907 14.1332 37.4287 10.5713C33.8668 7.00933 29.0374 5.00572 24 4.99999V4.99999Z" fill="#C40000"/>
<path d="M24 34C24.8284 34 25.5 33.3284 25.5 32.5C25.5 31.6716 24.8284 31 24 31C23.1716 31 22.5 31.6716 22.5 32.5C22.5 33.3284 23.1716 34 24 34Z" fill="#C40000"/>
<path d="M24 29.04C23.6022 29.04 23.2207 28.8819 22.9394 28.6006C22.6581 28.3193 22.5 27.9378 22.5 27.54V15.4941C22.5 15.0963 22.658 14.7148 22.9393 14.4335C23.2206 14.1522 23.6022 13.9941 24 13.9941C24.3978 13.9941 24.7794 14.1522 25.0607 14.4335C25.342 14.7148 25.5 15.0963 25.5 15.4941V27.54C25.5 27.9378 25.3419 28.3193 25.0606 28.6006C24.7793 28.8819 24.3978 29.04 24 29.04V29.04Z" fill="#C40000"/>
</svg>
