<svg width="280" height="64" viewBox="0 0 280 64" fill="none" xmlns="http://www.w3.org/2000/svg">
<path d="M18.2505 40.9221C22.7774 40.9221 25.8283 39.0007 26.8411 34.2063C28.4159 26.7506 18.9298 28.9705 19.8562 24.5555C20.1835 23.0196 21.0667 22.2734 22.308 22.2734C23.0429 22.2734 23.4629 22.5097 23.6482 23.0133C23.8396 23.4859 23.8026 24.2259 23.5926 25.2333H28.3542L28.4592 24.7296C29.1447 21.4712 27.9157 18.959 22.9812 18.959C18.0467 18.959 15.5022 21.8008 14.792 25.1773C13.1245 33.0746 22.6786 30.5313 21.7213 35.0831C21.4681 36.2957 20.6899 37.6015 18.9545 37.6015C17.2191 37.6015 17.0647 36.389 17.4044 34.7909L17.5588 34.0509H12.7972L12.5069 35.4127C11.5744 39.8215 14.6623 40.9221 18.2505 40.9221ZM42.8551 35.1764H38.2726L37.1486 40.5055H41.7311L42.8551 35.1764ZM54.9351 40.9221C56.8496 40.9221 58.8073 40.3874 59.9808 38.497H60.0363L59.7275 40.5055H63.1057L65.4958 29.1695H58.5974L57.8995 32.4839H60.2154L60.0734 33.1617C59.462 36.0594 58.5479 37.6015 56.8743 37.6015C54.898 37.6015 55.003 35.736 56.2258 29.9654C57.4116 24.3441 58.0786 22.2734 60.1166 22.2734C61.9323 22.2734 61.6235 24.4373 61.3394 25.7991H66.101C66.6013 23.3989 67.2744 18.9652 60.9071 18.9652C53.9099 18.9652 52.4833 23.4673 51.0258 30.3821C49.6362 36.9797 49.6856 40.9221 54.9412 40.9221H54.9351ZM116.453 24.4373L115.99 26.6013H115.934C115.681 25.1462 114.853 24.0207 112.704 24.0207C108.548 24.0207 107.115 28.4419 106.312 32.2413C105.379 36.6626 105.682 40.1075 109.128 40.1075C110.752 40.1075 112.364 39.5728 113.402 37.7321H113.464L113.26 38.7146C112.611 41.774 112.074 42.8125 110.475 42.8125C109.98 42.8125 109.616 42.6881 109.363 42.4892C109.141 42.2777 109.066 41.9482 109.073 41.5067H104.651C104.144 43.9194 105.065 45.959 109.69 45.959C114.73 45.959 116.83 43.5525 117.589 39.9334L120.856 24.4436H116.44L116.453 24.4373ZM114.643 32.0734C113.877 35.6801 113.18 36.6315 111.889 36.6315C110.598 36.6315 110.376 35.5619 111.086 32.2227C111.642 29.5861 112.266 27.7517 113.822 27.7517C115.205 27.7517 115.261 29.1446 114.643 32.0734ZM143.275 24.0829C139.458 24.0829 136.876 25.7059 136.203 28.9083C135.493 32.2787 137.21 33.0559 140.835 34.3804C142.2 34.8841 142.398 35.593 142.249 36.333C142.052 37.2533 141.311 37.9684 140.199 37.9684C139.439 37.9684 139.056 37.6699 138.884 37.2284C138.748 36.7496 138.822 36.134 138.945 35.4189H134.709L134.56 36.1278C133.875 39.3302 135.339 40.9221 139.6 40.9221C143.54 40.9221 146.109 38.9074 146.789 35.6863C148.104 29.4742 140.088 31.3646 140.693 28.5228C140.872 27.6646 141.36 27.0428 142.62 27.0428C143.62 27.0428 144.096 27.4346 143.799 28.8213L143.738 29.1135H147.974L148.079 28.5787C148.573 26.2717 147.74 24.0829 143.268 24.0829H143.275ZM217.187 24.4311H211.932L207.145 30.1893H207.09L209.393 19.2823H204.607L200.129 40.5055H204.91L205.836 36.1402L207.429 34.4426L209.128 40.5055H214.352L211.246 30.9044L217.187 24.4311Z" fill="#00693C"/>
<path d="M32.5105 40.6797C33.4184 40.6797 34.351 40.6237 35.2835 40.5056L35.9629 37.3032C35.7467 37.3342 35.475 37.3591 35.2712 37.3591C34.1472 37.3591 33.8198 37.0047 34.0483 35.8729L35.7591 27.7705H37.97L38.6741 24.4436H36.4631L37.4636 19.7177H32.6896L31.6953 24.4436H29.7191L29.0212 27.7705H30.9913L29.1818 36.3518C28.3913 40.0952 29.2126 40.6859 32.5167 40.6859L32.5105 40.6797Z" fill="#00693C"/>
<path d="M97.456 24.4434H102.051L101.575 26.6945H101.631C102.551 25.2705 104.021 24.0268 106.022 24.0268C106.257 24.0268 106.491 24.0268 106.775 24.089L105.824 28.5973C105.373 28.504 104.997 28.4791 104.527 28.4791C102.613 28.4791 101.205 29.2813 100.76 31.3831L98.8394 40.4867H94.0654L97.4498 24.4434H97.456Z" fill="#00693C"/>
<path d="M80.9232 32.4899C81.936 27.6956 83.7641 24.0268 89.2668 24.0268C95.0906 24.0268 95.0659 27.6086 94.053 32.4029C93.0402 37.1972 91.2121 40.866 85.7156 40.866C79.898 40.866 79.9165 37.2843 80.9293 32.4899H80.9232ZM88.6306 27.1671C87.2164 27.1671 86.5185 28.5537 85.6971 32.434C84.8695 36.3391 84.9931 37.732 86.4012 37.732C87.8093 37.732 88.4515 36.4013 89.2791 32.4651C90.1128 28.4978 90.1005 27.1671 88.6306 27.1671Z" fill="#00693C"/>
<path d="M166.953 29.4308L166.965 29.3748C169.046 28.9893 170.751 27.0678 171.276 24.6116C172.017 21.092 169.991 19.4069 166.397 19.4069H158.708L154.243 40.5243H161.543C167.404 40.5243 169.207 37.154 169.732 34.6666C170.646 30.3449 168.466 29.6671 166.953 29.4308ZM164.73 34.107C164.415 35.5807 163.47 36.8555 161.469 36.8555H159.962L161.172 31.1471H162.766C164.297 31.1471 165.168 32.0301 164.73 34.107ZM166.169 25.3516C165.847 26.8626 164.939 27.8389 163.229 27.8389H161.876L162.883 23.0757H164.273C166.064 23.0757 166.403 24.2634 166.175 25.3516H166.169Z" fill="#00693C"/>
<path d="M197.042 24.0209C195.269 24.0209 193.694 24.9101 192.719 26.3341H192.657L193.058 24.4375H188.457L185.067 40.4932H189.841L192.058 29.9842C192.391 28.411 193.336 27.6959 194.25 27.6959C195.164 27.6959 195.491 28.3799 195.244 29.5365L192.935 40.487H197.715L200.253 28.467C200.902 25.3765 199.747 24.0146 197.035 24.0146L197.042 24.0209Z" fill="#00693C"/>
<path d="M180.354 24.0645C178.378 24.0645 176.97 24.3319 175.685 25.103C174.401 25.874 173.474 27.2048 172.98 29.3998H177.223C177.544 28.0069 178.094 27.2048 179.422 27.2048C180.484 27.2048 180.793 27.8266 180.589 28.8029C180.33 30.0217 180.015 30.258 178.489 30.6373C177.087 30.9917 175.259 31.2902 173.944 31.9431C172.628 32.5961 171.535 34.1693 171.134 36.0348C170.399 39.5046 171.665 40.9286 174.345 40.9286C175.939 40.9286 177.612 40.0954 178.557 38.6714H178.619C178.514 39.2994 178.44 39.9461 178.495 40.512H183.09C182.677 39.7969 183.004 38.261 183.263 37.0422L185.005 28.7967C185.721 25.4201 184.27 24.0521 180.354 24.0521V24.0645ZM179.162 35.4192C178.823 37.0235 177.785 37.6142 176.785 37.6142C175.908 37.6142 175.568 36.8432 175.834 35.5684C176.019 34.6792 176.365 34.1755 176.945 33.79C177.464 33.4355 178.119 33.4044 179.786 32.6085C179.65 33.2552 179.447 34.0885 179.162 35.4192Z" fill="#00693C"/>
<path d="M71.332 33.2612L71.1282 34.2375C70.6033 36.7248 70.6959 37.9436 72.0793 37.9436C73.3145 37.9436 73.895 37.0233 74.4385 35.0148H78.8542C77.9279 38.9821 75.3711 40.9098 71.4309 40.9098C65.4279 40.9098 65.8479 36.6751 66.8545 31.8994C67.8056 27.3973 69.8128 24.0457 74.9882 24.0457C80.9046 24.0457 80.5217 27.8077 79.3668 33.2612H71.332ZM75.3587 30.4754C75.8342 28.2244 75.7972 27.0056 74.4694 27.0056C72.9131 27.0056 72.3696 28.3114 71.9126 30.4754H75.3587Z" fill="#00693C"/>
<path d="M125.606 33.2612L125.402 34.2375C124.877 36.7248 124.969 37.9436 126.353 37.9436C127.588 37.9436 128.169 37.0233 128.712 35.0148H133.128C132.201 38.9821 129.645 40.9098 125.698 40.9098C119.695 40.9098 120.115 36.6751 121.122 31.8994C122.073 27.3973 124.074 24.0457 129.255 24.0457C135.172 24.0457 134.789 27.8077 133.634 33.2612H125.599H125.606ZM129.638 30.4754C130.114 28.2244 130.077 27.0056 128.749 27.0056C127.193 27.0056 126.649 28.3114 126.192 30.4754H129.638Z" fill="#00693C"/>
<path d="M11.6807 51.0288H12.7126L12.5428 51.8199C12.3664 52.6633 11.6807 53.0621 11.3085 53.0621C10.4073 53.0621 10.4856 51.8853 10.884 50.022C11.2889 48.0867 11.7656 47.3022 12.5232 47.3022C13.1501 47.3022 13.2546 48.0279 13.1371 48.6032H14.6391C14.9722 47.0276 14.4628 46.1515 12.7518 46.1515C10.7534 46.1515 9.86522 47.4918 9.31012 50.1004C8.74196 52.781 8.81379 54.2193 10.7338 54.2193C11.4652 54.2193 12.053 53.9578 12.5493 53.3498H12.5689L12.4187 54.0689H13.5681L14.4562 49.8781H11.9289L11.6807 51.0288ZM18.773 48.0802C18.6881 48.0671 18.5901 48.0606 18.5052 48.0606C17.8848 48.0606 17.382 48.4267 16.964 48.989H16.9379L17.1011 48.2109H15.6709L14.4301 54.0624H15.9256L16.6701 50.545C16.8399 49.7604 17.4799 49.4924 18.0024 49.4924C18.1591 49.4924 18.3158 49.5055 18.466 49.512L18.773 48.0802ZM22.3256 48.2109L21.5028 52.0879C21.3656 52.7417 21.013 53.0556 20.5036 53.0556C20.0595 53.0556 19.9158 52.8333 20.0399 52.2383L20.8954 48.2044H19.3934L18.4726 52.5391C18.2309 53.6897 18.675 54.2062 19.6024 54.2062C20.2358 54.2062 20.8301 53.9447 21.2677 53.3694H21.2873L21.1371 54.0559H22.5738L23.8146 48.2044H22.3191L22.3256 48.2109ZM27.635 48.0606C27.0473 48.0606 26.5901 48.2829 26.1526 48.832H26.1264L26.2571 48.2109H24.8269L23.1811 55.9715H24.6767L25.1991 53.5132H25.2187C25.4342 53.984 25.7673 54.2128 26.3224 54.2128C27.5567 54.2128 28.3142 53.3105 28.7779 51.1334C29.235 48.9628 28.8628 48.0606 27.635 48.0606ZM27.2758 51.1334C27.0081 52.4083 26.7338 53.0556 26.0873 53.0556C25.4407 53.0556 25.4342 52.4083 25.7085 51.1334C25.9762 49.865 26.244 49.2047 26.9101 49.2047C27.5762 49.2047 27.5501 49.8585 27.2824 51.1334M32.3958 48.0606C30.6848 48.0606 29.862 49.1328 29.4375 51.1334C29.0064 53.1732 29.2807 54.2455 31.0832 54.2128C32.8007 54.2128 33.6171 53.134 34.0416 51.1334C34.4726 49.1066 34.2048 48.0279 32.3893 48.0606M32.5395 51.1334C32.2326 52.5914 31.9126 53.1863 31.2987 53.1863C30.5607 53.1863 30.6783 52.3233 30.933 51.1334C31.1877 49.937 31.4358 49.087 32.1738 49.087C32.7811 49.087 32.8465 49.682 32.5395 51.1334ZM41.3885 46.2953H38.6522L36.9999 54.0624H38.5673L39.2269 50.9634H40.0628C41.5387 50.9634 42.675 50.2377 43.0211 48.6294C43.2693 47.4656 42.9689 46.3019 41.3885 46.3019M41.3624 48.7471C41.1991 49.5381 40.6962 49.9108 40.0693 49.9108H39.3771L39.8734 47.5506H40.5265C41.3101 47.5506 41.5191 47.9886 41.3624 48.7471ZM46.8089 48.0867C46.724 48.0736 46.626 48.0671 46.5411 48.0671C45.9207 48.0671 45.4244 48.4332 44.9934 48.9955H44.9738L45.1371 48.2175H43.7003L42.4595 54.0689H43.955L44.6995 50.5515C44.8628 49.767 45.5093 49.4989 46.0318 49.4989C46.182 49.4989 46.3452 49.512 46.4954 49.5185L46.8024 48.0867H46.8089ZM49.4603 48.0671C47.7428 48.0671 46.933 49.1393 46.5085 51.1399C46.0775 53.1798 46.3452 54.252 48.1607 54.2193C49.8783 54.2193 50.6881 53.1406 51.1191 51.1399C51.5436 49.1132 51.2758 48.0344 49.4669 48.0671M49.6171 51.1399C49.3101 52.5979 48.9901 53.1929 48.3828 53.1929C47.6448 53.1929 47.7624 52.3299 48.0171 51.1399C48.2718 49.9435 48.5199 49.0936 49.2579 49.0936C49.8652 49.0936 49.9305 49.6885 49.6171 51.1399ZM58.355 48.0671C57.6497 48.0671 57.0358 48.3809 56.6832 48.9955H56.6571C56.6244 48.4005 56.1934 48.0671 55.5077 48.0671C54.8742 48.0671 54.3648 48.2829 53.875 48.819H53.8489L53.9795 48.2175H52.5428L51.302 54.0689H52.7975L53.6138 50.2181C53.7575 49.5447 54.1297 49.2113 54.613 49.2113C55.0375 49.2113 55.142 49.4924 55.0375 49.9827L54.1689 54.0689H55.6644L56.4807 50.2181C56.6244 49.5447 56.9967 49.2113 57.4734 49.2113C57.8979 49.2113 58.0024 49.4924 57.9044 49.9827L57.0358 54.0689H58.5313L59.4326 49.8127C59.6742 48.6817 59.3411 48.0671 58.355 48.0671ZM62.9199 48.0671C60.8954 48.0671 60.2881 49.5185 59.955 51.0811C59.6481 52.5456 59.3803 54.2193 61.555 54.2193C62.9591 54.2193 63.7754 53.4609 64.1216 52.0945H62.7762C62.5346 52.8202 62.2473 53.1929 61.7444 53.1929C61.1893 53.1929 61.1501 52.5194 61.3003 51.833L61.3983 51.3622H64.3632L64.435 51.0288C64.8138 49.2309 64.6767 48.0606 62.9265 48.0606M63.1224 50.4731H61.5877L61.6334 50.2442C61.7509 49.7016 62.0513 49.087 62.6522 49.087C63.253 49.087 63.2726 49.5839 63.1224 50.4731ZM68.915 48.0802C68.8301 48.0671 68.7387 48.0606 68.6473 48.0606C68.0269 48.0606 67.524 48.4267 67.0995 48.989H67.0734L67.2432 48.2109H65.8065L64.5656 54.0624H66.0611L66.8122 50.545C66.9754 49.7604 67.622 49.4924 68.1444 49.4924C68.2946 49.4924 68.4579 49.5055 68.6081 49.512L68.9085 48.0802H68.915ZM71.4097 46.2103H69.9077L69.6334 47.4918H71.1289L71.4032 46.2103H71.4097ZM68.2424 54.0624H69.7444L70.9852 48.2109H69.4832L68.2424 54.0624ZM75.8375 50.3162C76.1313 48.9432 75.5958 48.0606 74.2179 48.0606C72.8399 48.0606 71.7101 48.734 71.1942 51.1334C70.6913 53.4871 71.2791 54.2128 72.7746 54.2128C74.3616 54.2128 75.1844 53.3498 75.5044 51.8199H74.0742C73.8718 52.7679 73.5583 53.1929 73.0554 53.1929C72.3828 53.1929 72.3762 52.5914 72.6832 51.153C72.9705 49.8062 73.2252 49.1524 73.9632 49.1524C74.5313 49.1524 74.5118 49.7604 74.3942 50.3227H75.8309L75.8375 50.3162ZM79.1354 48.0606C78.0122 48.0606 76.9934 48.5182 76.6995 49.865L76.6734 50.0089H78.0252L78.0579 49.8454C78.1558 49.3878 78.4628 49.087 78.9134 49.087C79.4163 49.087 79.5534 49.3551 79.4554 49.7997C79.3771 50.1919 79.1811 50.3619 78.7109 50.4796L77.8162 50.7084C76.7191 50.9896 76.1836 51.4341 75.9485 52.5325C75.7852 53.3105 75.9681 54.2062 77.0065 54.2062C77.7248 54.2062 78.1885 54.0559 78.6587 53.4478H78.6848C78.6848 53.644 78.6848 53.8728 78.7371 54.0559H80.1673C80.0824 53.7159 80.1085 53.4675 80.226 52.9248L80.8791 49.8454C81.1011 48.7928 80.9248 48.054 79.142 48.054M78.933 52.2775C78.7958 52.9183 78.2211 53.1798 77.8162 53.1798C77.4113 53.1798 77.3265 52.8071 77.4244 52.3625C77.5354 51.8395 77.8358 51.5453 78.4693 51.4211C78.6652 51.3753 78.933 51.2772 79.1746 51.1203L78.933 52.2775Z" fill="#00693C"/>
<path d="M254.941 17.791C246.61 25.8356 239.166 34.7149 232.48 44.1206C244.396 33.9444 257.351 24.9561 271.297 17.6691V17.6498C265.845 17.4443 260.387 17.4893 254.941 17.791Z" fill="#69BE28"/>
<path d="M227.597 49.43C234.825 37.7387 243.208 26.7536 252.943 16.9627C251.768 13.9709 249.352 8 249.352 8C246.055 11.6596 243.143 15.6209 240.453 19.7298C235.262 20.8983 230.143 22.3621 225.187 24.2882C225.187 24.2882 231.482 28.4871 234.57 30.6571C231.952 36.6023 227.838 48.7045 227.597 49.43ZM262.078 47.7286H262.084C260.308 41.2249 258.552 34.7276 256.815 28.211C252.519 30.946 248.314 33.8031 244.207 36.8078C250.221 40.3517 256.175 44.0049 262.078 47.7286Z" fill="#00693C"/>
</svg>
