<svg width="48" height="48" viewBox="0 0 48 48" fill="none" xmlns="http://www.w3.org/2000/svg">
<path d="M23.9453 24.0001H24.0381C26.1444 23.9946 28.1629 23.1555 29.6523 21.6661C31.1417 20.1767 31.9809 18.1582 31.9863 16.0518L31.9873 12.9498C31.9751 10.8374 31.1274 8.81567 29.6294 7.32626C28.1314 5.83685 26.1049 5.0008 23.9924 5.00073C21.88 5.00067 19.8534 5.83659 18.3553 7.32591C16.8572 8.81523 16.0094 10.8369 15.9971 12.9493V16.0499C16.0022 18.1565 16.8412 20.1753 18.3306 21.6651C19.82 23.1549 21.8387 23.9944 23.9453 24.0001ZM17.997 12.9493C18.0091 11.3672 18.6461 9.85405 19.7691 8.73961C20.8921 7.62517 22.41 6.99979 23.9922 6.99979C25.5743 6.99979 27.0922 7.62517 28.2152 8.73961C29.3382 9.85405 29.9752 11.3672 29.9873 12.9493L29.9863 16.0513C29.9811 17.6273 29.3528 19.1373 28.2384 20.2518C27.124 21.3663 25.6141 21.9948 24.0381 22.0001H23.9453C22.3692 21.9945 20.8592 21.3659 19.7448 20.2512C18.6305 19.1366 18.0022 17.6265 17.997 16.0503V12.9493Z" fill="#3F3F3F"/>
<path d="M29.6699 23.7305C29.5136 23.7103 29.3547 23.7274 29.2064 23.7806C29.058 23.8337 28.9243 23.9213 28.8164 24.0362C28.5301 24.3383 28.208 24.6044 27.8574 24.8287C26.7013 25.5897 25.3477 25.9954 23.9637 25.9957C22.5796 25.9961 21.2258 25.5911 20.0693 24.8307C20.0233 24.8003 19.9791 24.7613 19.9336 24.7289C19.6433 24.5227 19.3723 24.2905 19.124 24.0353C19.0149 23.9243 18.8816 23.8402 18.7345 23.7895C18.5875 23.7387 18.4306 23.7227 18.2764 23.7428C15.7596 24.0369 13.4342 25.2314 11.7292 27.1058C10.0243 28.9803 9.05491 31.4082 9 33.9415V37.3487C9.00217 38.0964 9.15599 38.8359 9.45217 39.5225C9.74835 40.209 10.1807 40.8283 10.7231 41.343C11.8401 42.4118 13.3281 43.0058 14.874 43.0001H33.126C34.6537 43.0273 36.1299 42.4478 37.231 41.3884C38.3321 40.329 38.9682 38.8763 39 37.3487V33.9424C38.949 31.3979 37.9743 28.9588 36.2576 27.0799C34.5409 25.201 32.1995 24.0105 29.6699 23.7305V23.7305ZM28.9648 26.4942C29.2906 26.2836 29.5988 26.0472 29.8867 25.7872C31.8388 26.1006 33.6194 27.0882 34.9188 28.5783C36.2182 30.0684 36.9543 31.9669 36.999 33.9435V37.3497C36.9673 38.3468 36.5418 39.2907 35.8158 39.9748C35.0897 40.659 34.1222 41.0276 33.125 41.0001L32.4115 41C32.719 38.2035 32.7473 35.3833 32.4961 32.5811C32.4858 32.4498 32.4493 32.3219 32.3889 32.2048C32.3285 32.0878 32.2453 31.9839 32.1443 31.8994C32.0432 31.8149 31.9263 31.7515 31.8004 31.7127C31.6745 31.674 31.5422 31.6608 31.4111 31.6739C31.1469 31.6976 30.903 31.8251 30.7329 32.0286C30.5627 32.232 30.4804 32.4947 30.5039 32.7589C30.7535 35.5024 30.7145 38.2646 30.3875 41L17.593 40.9992C17.2671 38.2637 17.2285 35.5015 17.4776 32.7579C17.5011 32.4937 17.4188 32.231 17.2487 32.0275C17.0785 31.824 16.8345 31.6965 16.5704 31.6729C16.3062 31.6494 16.0434 31.7317 15.84 31.9018C15.6365 32.072 15.509 32.316 15.4854 32.5801C15.2342 35.3823 15.2623 38.2025 15.5694 40.9992L14.8731 40.9991C13.8578 41.0044 12.8789 40.6217 12.1364 39.9292C11.7804 39.5998 11.4959 39.2008 11.3006 38.7569C11.1053 38.313 11.0033 37.8337 11.001 37.3487V33.9424C11.0493 31.9748 11.7817 30.0855 13.0722 28.5994C14.3628 27.1133 16.1308 26.1234 18.0723 25.7999C18.349 26.0527 18.6444 26.2841 18.9561 26.4923C19.6904 26.9898 20.4949 27.3748 21.343 27.6344C21.4341 27.6623 21.5299 27.6726 21.6219 27.6974C21.9542 27.7932 22.2917 27.8695 22.6329 27.926C23.0735 27.9916 23.5184 28.0245 23.9639 28.0244C25.7472 28.0313 27.4908 27.4978 28.9648 26.4942V26.4942Z" fill="#3F3F3F"/>
</svg>
